<svg xmlns="http://www.w3.org/2000/svg" viewBox="0 0 64 64">
  <defs>
    <linearGradient id="flame" x1="12" y1="56" x2="50" y2="8" gradientUnits="userSpaceOnUse">
      <stop stop-color="#2f8bff"/>
      <stop offset="1" stop-color="#1452d6"/>
    </linearGradient>
  </defs>
  <rect width="64" height="64" rx="16" fill="#081026"/>
  <path fill="url(#flame)" d="M34 5c2 12-6 15-5 25 1-4 4-7 8-10 8 11 10 19 6 27-4 8-13 12-21 9-9-4-12-14-8-23 2-6 8-11 12-16-1 9 1 13 5 16-1-11 2-18 3-28Z"/>
  <path fill="#fff" d="M30 32c-1 6 2 8 5 10 3 2 4 7 0 10-5 3-12-1-12-7 0-5 4-9 7-13Z"/>
</svg>
